<?xml version="1.0" encoding="UTF-8"?> <svg xmlns="http://www.w3.org/2000/svg" width="327.026" height="49.167" viewBox="0 0 327.026 49.167"><g id="Group_31" data-name="Group 31" transform="translate(-797 -4018)"><g id="Group_30" data-name="Group 30" transform="translate(796.369 4016.757)"><path id="Path_46" data-name="Path 46" d="M59.388,23.83a5.026,5.026,0,0,1-.1.7,6.129,6.129,0,0,1-.368,1.338,6.319,6.319,0,0,1-1.572,2.208,7.909,7.909,0,0,1-1.974,1.405,10.945,10.945,0,0,1-4.114,1.1q-.518.042-1.037.034a6.18,6.18,0,0,1-1.1-.068,8.757,8.757,0,0,1-2.207-.5A8.669,8.669,0,0,1,43.1,27.409a8.166,8.166,0,0,1-1.238-2.174,7.249,7.249,0,0,1-.435-2.541h5.185a2.249,2.249,0,0,0,.568,1.337,3.358,3.358,0,0,0,1.539,1,3.16,3.16,0,0,0,1,.233,2.544,2.544,0,0,0,.5.034,3.977,3.977,0,0,0,.636-.034,5.449,5.449,0,0,0,2.174-.535,3.057,3.057,0,0,0,.735-.468,1.653,1.653,0,0,0,.335-.435.461.461,0,0,0,.067-.2.8.8,0,0,0,.033-.3,3.6,3.6,0,0,0-.066-.7,2.487,2.487,0,0,0-.268-.5,3.085,3.085,0,0,0-.77-.6,8.651,8.651,0,0,0-2.609-1.036c-1-.3-2.106-.536-3.311-.971a10.655,10.655,0,0,1-1.84-.8,6.648,6.648,0,0,1-1.94-1.506A5.535,5.535,0,0,1,42.163,14.8a5.939,5.939,0,0,1-.2-1.271,8.433,8.433,0,0,1,.067-1.271A5.8,5.8,0,0,1,43,9.681a6.491,6.491,0,0,1,1.907-1.806A9.671,9.671,0,0,1,49.12,6.537a9.955,9.955,0,0,1,1-.067h.535a2.909,2.909,0,0,1,.536.033,8.671,8.671,0,0,1,2.241.469,8.5,8.5,0,0,1,3.847,2.676,7.521,7.521,0,0,1,1.639,4.683H53.7a2.3,2.3,0,0,0-.535-1.405,3.856,3.856,0,0,0-2.442-1.237c-.1,0-.167-.035-.268-.035h-.9a5.058,5.058,0,0,0-2.041.5,2.435,2.435,0,0,0-.5.367,1.036,1.036,0,0,0-.234.469,1.826,1.826,0,0,0-.033.736,1.168,1.168,0,0,0,.2.468,2.765,2.765,0,0,0,.636.535,6.068,6.068,0,0,0,1.137.5c.87.334,1.906.6,2.977.9a24.093,24.093,0,0,1,3.579,1.138,8.958,8.958,0,0,1,1.94,1.237,6.133,6.133,0,0,1,1.6,2.174,6.316,6.316,0,0,1,.568,2.509Z" fill="#fff"></path><rect id="Rectangle_42" data-name="Rectangle 42" width="5.184" height="23.414" transform="translate(63.803 6.805)" fill="#fff"></rect><path id="Path_47" data-name="Path 47" d="M89.825,25.7v4.516H73.736V16.337H88.019V20.82h-9.1V25.7ZM73.736,6.8H89.825V11.32H73.736Z" fill="#fff"></path><path id="Path_48" data-name="Path 48" d="M114.642,30.219h-5.887l-6.188-7.794H99.122v7.794H93.937V17.909H105.21a3.311,3.311,0,0,0,0-6.589H99.122V14.2H93.937V6.8H105.21a7.873,7.873,0,0,1,8.161,7.828,7.7,7.7,0,0,1-5.285,7.326Z" fill="#fff"></path><path id="Path_49" data-name="Path 49" d="M138.723,30.219h-5.886l-6.189-7.794H123.2v7.794h-5.184V17.909h11.272a3.312,3.312,0,0,0,0-6.589H123.2V14.2h-5.184V6.8h11.272a7.874,7.874,0,0,1,8.162,7.828,7.7,7.7,0,0,1-5.285,7.326Z" fill="#fff"></path><path id="Path_50" data-name="Path 50" d="M148.555,25.7h3.713l2.508,4.516H140.192L153.2,6.8l13.012,23.414H159.96L153,17.709Z" fill="#fff"></path><path id="Path_51" data-name="Path 51" d="M170.763,16.271h5.184V30.219h-5.184ZM163.9,6.8h18.932V11.32H163.9Z" fill="#fff"></path><path id="Path_52" data-name="Path 52" d="M201.366,6.8h5.219V30.219h-5.219Zm-.669,9-4.516,4.515h-5.05v9.9h-5.185V6.8h5.185v9Z" fill="#fff"></path><path id="Path_53" data-name="Path 53" d="M227.387,25.7v4.516H211.3V16.337h14.283V20.82h-9.1V25.7ZM211.3,6.8h16.089V11.32H211.3Z" fill="#fff"></path><path id="Path_54" data-name="Path 54" d="M252.2,30.219h-5.887l-6.187-7.794h-3.446v7.794H231.5V17.909h11.273a3.311,3.311,0,0,0,0-6.589h-6.088V14.2H231.5V6.8h11.273a7.873,7.873,0,0,1,8.161,7.828,7.7,7.7,0,0,1-5.285,7.326Z" fill="#fff"></path><path id="Path_55" data-name="Path 55" d="M278.929,30.219H273.71v-8.73l-6.422,8.73-6.422-8.73v8.73h-5.184V6.8l11.606,15.788L278.929,6.8Z" fill="#fff"></path><path id="Path_56" data-name="Path 56" d="M290.366,25.7h3.712l2.508,4.516H282L295.015,6.8l13.012,23.414h-6.255l-6.957-12.51Z" fill="#fff"></path><path id="Path_57" data-name="Path 57" d="M327.657,30.219H311.134V6.8h5.184V25.7h11.339Z" fill="#fff"></path><path id="Path_58" data-name="Path 58" d="M24.513,23.84V13.184L35.168,23.84Z" fill="#fff"></path><path id="Path_59" data-name="Path 59" d="M24.513,35.781V25.125H35.168Z" fill="#fff"></path><path id="Path_60" data-name="Path 60" d="M11.287,11.9H.631L11.287,1.243Z" fill="#fff"></path><rect id="Rectangle_43" data-name="Rectangle 43" width="10.656" height="10.656" transform="translate(12.572 1.243)" fill="#fff"></rect><path id="Path_61" data-name="Path 61" d="M.631,13.184H11.287V23.84Z" fill="#fff"></path><rect id="Rectangle_44" data-name="Rectangle 44" width="10.656" height="10.656" transform="translate(12.572 13.184)" fill="#fff"></rect><rect id="Rectangle_45" data-name="Rectangle 45" width="10.656" height="10.656" transform="translate(12.572 25.125)" fill="#fff"></rect><rect id="Rectangle_46" data-name="Rectangle 46" width="10.656" height="10.656" transform="translate(24.513 1.243)" fill="#fff"></rect><rect id="Rectangle_47" data-name="Rectangle 47" width="10.656" height="10.656" transform="translate(0.631 25.125)" fill="#fff"></rect><rect id="Rectangle_48" data-name="Rectangle 48" width="1.404" height="10.327" transform="translate(157.603 36.981)" fill="#fff"></rect><path id="Path_62" data-name="Path 62" d="M162.625,39.633l.1,1.142a2.792,2.792,0,0,1,.961-.947A2.561,2.561,0,0,1,165,39.492a2.5,2.5,0,0,1,1.922.727,3.189,3.189,0,0,1,.681,2.244v4.845h-1.4V42.491a2.071,2.071,0,0,0-.4-1.439,1.6,1.6,0,0,0-1.223-.426,1.97,1.97,0,0,0-1.068.291,2.124,2.124,0,0,0-.741.794v5.6h-1.4V39.633Z" fill="#fff"></path><path id="Path_63" data-name="Path 63" d="M170.881,39.633l.1,1.142a2.8,2.8,0,0,1,.962-.947,2.557,2.557,0,0,1,1.315-.336,2.5,2.5,0,0,1,1.923.727,3.194,3.194,0,0,1,.68,2.244v4.845h-1.4V42.491a2.071,2.071,0,0,0-.4-1.439,1.6,1.6,0,0,0-1.223-.426,1.973,1.973,0,0,0-1.068.291,2.132,2.132,0,0,0-.741.794v5.6h-1.4V39.633Z" fill="#fff"></path><path id="Path_64" data-name="Path 64" d="M178.96,43.552a3.634,3.634,0,0,0,.514,2.011,1.859,1.859,0,0,0,3.047,0,3.61,3.61,0,0,0,.518-2.011V43.4a3.6,3.6,0,0,0-.522-2.005,1.711,1.711,0,0,0-1.528-.8,1.69,1.69,0,0,0-1.515.8,3.65,3.65,0,0,0-.514,2.005Zm-1.4-.153a4.225,4.225,0,0,1,.922-2.8,3.419,3.419,0,0,1,5.025,0,4.214,4.214,0,0,1,.926,2.809v.157a4.2,4.2,0,0,1-.922,2.808,3.432,3.432,0,0,1-5.026,0,4.2,4.2,0,0,1-.925-2.805Z" fill="#fff"></path><path id="Path_65" data-name="Path 65" d="M188.6,45.045l.121.539h.043l.135-.539,1.766-5.412h1.426l-2.823,7.675h-1.057l-2.858-7.675h1.433Z" fill="#fff"></path><path id="Path_66" data-name="Path 66" d="M195.636,46.279a2.5,2.5,0,0,0,1.369-.389A1.851,1.851,0,0,0,197.8,45V43.755h-1.567a2.03,2.03,0,0,0-1.352.424,1.268,1.268,0,0,0-.507,1,1.05,1.05,0,0,0,.319.806A1.339,1.339,0,0,0,195.636,46.279Zm2.319,1.029q-.07-.348-.11-.614a4.58,4.58,0,0,1-.046-.535,3.254,3.254,0,0,1-1.018.925,2.594,2.594,0,0,1-1.351.373,2.514,2.514,0,0,1-1.826-.614,2.254,2.254,0,0,1-.628-1.691,1.982,1.982,0,0,1,.89-1.721,4.16,4.16,0,0,1,2.415-.62H197.8v-.759a1.409,1.409,0,0,0-.411-1.068,1.623,1.623,0,0,0-1.164-.394,1.686,1.686,0,0,0-1.1.344,1.036,1.036,0,0,0-.422.827h-1.334l-.014-.042a1.858,1.858,0,0,1,.791-1.533,3.246,3.246,0,0,1,2.152-.694,3.168,3.168,0,0,1,2.1.662,2.349,2.349,0,0,1,.794,1.912v3.695a7.245,7.245,0,0,0,.043.794,4.094,4.094,0,0,0,.156.753Z" fill="#fff"></path><path id="Path_67" data-name="Path 67" d="M203.069,37.782v1.851h1.454v1.035h-1.454v4.661a1.045,1.045,0,0,0,.224.759.806.806,0,0,0,.592.22,1.406,1.406,0,0,0,.266-.029,1.552,1.552,0,0,0,.259-.071l.184.958a1.243,1.243,0,0,1-.457.209,2.349,2.349,0,0,1-.607.082,1.807,1.807,0,0,1-1.354-.515,2.231,2.231,0,0,1-.5-1.613V40.668h-1.22V39.633h1.22V37.782Z" fill="#fff"></path><path id="Path_68" data-name="Path 68" d="M207.758,47.308h-1.4V39.633h1.4Zm0-9.639h-1.4V36.242h1.4Z" fill="#fff"></path><path id="Path_69" data-name="Path 69" d="M210.978,43.552a3.626,3.626,0,0,0,.514,2.011,1.859,1.859,0,0,0,3.047,0,3.615,3.615,0,0,0,.517-2.012V43.4a3.6,3.6,0,0,0-.521-2.005,1.713,1.713,0,0,0-1.529-.8,1.689,1.689,0,0,0-1.514.8,3.641,3.641,0,0,0-.514,2.005Zm-1.4-.153a4.219,4.219,0,0,1,.922-2.8,3.419,3.419,0,0,1,5.025,0,4.214,4.214,0,0,1,.926,2.809v.157a4.206,4.206,0,0,1-.922,2.808,3.432,3.432,0,0,1-5.026,0,4.2,4.2,0,0,1-.925-2.805Z" fill="#fff"></path><path id="Path_70" data-name="Path 70" d="M219.411,39.633l.1,1.142a2.792,2.792,0,0,1,.961-.947,2.559,2.559,0,0,1,1.316-.336,2.5,2.5,0,0,1,1.922.727,3.189,3.189,0,0,1,.681,2.244v4.845h-1.4V42.491a2.081,2.081,0,0,0-.4-1.439,1.6,1.6,0,0,0-1.224-.426,1.973,1.973,0,0,0-1.068.291,2.132,2.132,0,0,0-.741.794v5.6h-1.4V39.633Z" fill="#fff"></path><path id="Path_71" data-name="Path 71" d="M230.881,45.265a.958.958,0,0,0-.351-.76,3.3,3.3,0,0,0-1.33-.517,5.589,5.589,0,0,1-2.1-.825,1.667,1.667,0,0,1-.706-1.42,2,2,0,0,1,.794-1.593,3.617,3.617,0,0,1,4.2.029,2.035,2.035,0,0,1,.755,1.674l-.014.043H230.8a1.225,1.225,0,0,0-.422-.9,1.559,1.559,0,0,0-1.118-.4,1.612,1.612,0,0,0-1.106.327,1.024,1.024,0,0,0-.362.788.879.879,0,0,0,.319.716,3.32,3.32,0,0,0,1.3.468,5.591,5.591,0,0,1,2.164.847,1.709,1.709,0,0,1,.709,1.436,1.982,1.982,0,0,1-.826,1.653,3.458,3.458,0,0,1-2.16.632,3.373,3.373,0,0,1-2.312-.745,2.126,2.126,0,0,1-.8-1.737l.014-.044h1.334a1.283,1.283,0,0,0,.553,1.084,2.143,2.143,0,0,0,1.213.342,1.978,1.978,0,0,0,1.167-.3A.931.931,0,0,0,230.881,45.265Z" fill="#fff"></path><path id="Path_72" data-name="Path 72" d="M239.137,47.308h-1.4V39.633h1.4Zm0-9.639h-1.4V36.242h1.4Z" fill="#fff"></path><path id="Path_73" data-name="Path 73" d="M242.534,39.633l.1,1.142a2.792,2.792,0,0,1,.961-.947,2.559,2.559,0,0,1,1.316-.336,2.5,2.5,0,0,1,1.922.727,3.189,3.189,0,0,1,.681,2.244v4.845h-1.4V42.491a2.081,2.081,0,0,0-.4-1.439,1.6,1.6,0,0,0-1.224-.426,1.967,1.967,0,0,0-1.067.291,2.135,2.135,0,0,0-.742.794v5.6h-1.4V39.633Z" fill="#fff"></path><path id="Path_74" data-name="Path 74" d="M260.409,38.079h-3.32v9.228h-1.4V38.079h-3.312v-1.1h8.029Z" fill="#fff"></path><path id="Path_75" data-name="Path 75" d="M264.005,40.59a1.519,1.519,0,0,0-1.2.591,2.8,2.8,0,0,0-.61,1.481l.014.036h3.54v-.184a2.133,2.133,0,0,0-.44-1.372A1.57,1.57,0,0,0,264.005,40.59Zm.213,6.867a3.238,3.238,0,0,1-2.55-1.068,4.017,4.017,0,0,1-.947-2.77v-.312a3.932,3.932,0,0,1,.975-2.727,3,3,0,0,1,2.309-1.088,2.9,2.9,0,0,1,2.348.935,3.732,3.732,0,0,1,.794,2.5V43.8h-4.979l-.021.035a3.014,3.014,0,0,0,.56,1.814,1.784,1.784,0,0,0,1.511.711,3.523,3.523,0,0,0,1.245-.2,2.848,2.848,0,0,0,.925-.557l.546.909a3.229,3.229,0,0,1-1.085.678,4.36,4.36,0,0,1-1.631.272Z" fill="#fff"></path><path id="Path_76" data-name="Path 76" d="M271.836,46.357a1.886,1.886,0,0,0,1.223-.429,1.311,1.311,0,0,0,.529-1.053h1.255l.014.042a2.157,2.157,0,0,1-.883,1.766,3.215,3.215,0,0,1-2.138.774,3.106,3.106,0,0,1-2.561-1.093,4.218,4.218,0,0,1-.887-2.745v-.3a4.2,4.2,0,0,1,.891-2.734,3.493,3.493,0,0,1,4.759-.3,2.469,2.469,0,0,1,.826,1.95l-.014.042h-1.262a1.626,1.626,0,0,0-.5-1.195,1.713,1.713,0,0,0-1.255-.493,1.685,1.685,0,0,0-1.571.79,3.72,3.72,0,0,0-.472,1.938v.3a3.76,3.76,0,0,0,.468,1.958A1.687,1.687,0,0,0,271.836,46.357Z" fill="#fff"></path><path id="Path_77" data-name="Path 77" d="M277.822,40.662a2.823,2.823,0,0,1,.975-.862,2.671,2.671,0,0,1,1.281-.308,2.476,2.476,0,0,1,1.911.737,3.249,3.249,0,0,1,.685,2.27v4.809h-1.4V42.485a2.052,2.052,0,0,0-.408-1.4,1.552,1.552,0,0,0-1.216-.454,2.067,2.067,0,0,0-1.053.273,2.271,2.271,0,0,0-.777.742v5.667h-1.4V36.242h1.4Z" fill="#fff"></path><path id="Path_78" data-name="Path 78" d="M285.929,39.633l.1,1.142a2.792,2.792,0,0,1,.961-.947,2.558,2.558,0,0,1,1.315-.336,2.5,2.5,0,0,1,1.922.727,3.189,3.189,0,0,1,.681,2.244v4.845h-1.4V42.491a2.075,2.075,0,0,0-.4-1.439,1.6,1.6,0,0,0-1.224-.426,1.973,1.973,0,0,0-1.068.291,2.124,2.124,0,0,0-.741.794v5.6h-1.4V39.633Z" fill="#fff"></path><path id="Path_79" data-name="Path 79" d="M294.008,43.552a3.634,3.634,0,0,0,.514,2.011,1.859,1.859,0,0,0,3.047,0,3.6,3.6,0,0,0,.517-2.011V43.4a3.591,3.591,0,0,0-.521-2.005,1.711,1.711,0,0,0-1.528-.8,1.69,1.69,0,0,0-1.515.8,3.65,3.65,0,0,0-.514,2.005Zm-1.4-.153a4.225,4.225,0,0,1,.922-2.8,3.419,3.419,0,0,1,5.025,0,4.214,4.214,0,0,1,.926,2.809v.157a4.2,4.2,0,0,1-.922,2.808,3.432,3.432,0,0,1-5.026,0,4.2,4.2,0,0,1-.925-2.805Z" fill="#fff"></path><rect id="Rectangle_49" data-name="Rectangle 49" width="1.397" height="11.065" transform="translate(301.307 36.243)" fill="#fff"></rect><path id="Path_80" data-name="Path 80" d="M305.924,43.552a3.627,3.627,0,0,0,.515,2.011,1.858,1.858,0,0,0,3.046,0A3.61,3.61,0,0,0,310,43.552V43.4a3.608,3.608,0,0,0-.521-2.005,1.713,1.713,0,0,0-1.529-.8,1.687,1.687,0,0,0-1.514.8,3.642,3.642,0,0,0-.515,2.005Zm-1.4-.153a4.225,4.225,0,0,1,.922-2.8,3.421,3.421,0,0,1,5.026,0A4.218,4.218,0,0,1,311.4,43.4v.157a4.2,4.2,0,0,1-.922,2.808,3.431,3.431,0,0,1-5.025,0,4.2,4.2,0,0,1-.926-2.805Z" fill="#fff"></path><path id="Path_81" data-name="Path 81" d="M314.2,43.761a3.191,3.191,0,0,0,.489,1.859,1.7,1.7,0,0,0,1.49.7,1.853,1.853,0,0,0,1.057-.287,2.186,2.186,0,0,0,.7-.813V41.69a2.162,2.162,0,0,0-.7-.776,1.84,1.84,0,0,0-1.043-.288,1.629,1.629,0,0,0-1.5.837,4.17,4.17,0,0,0-.5,2.149Zm-1.4-.149a5.034,5.034,0,0,1,.808-2.986,2.592,2.592,0,0,1,2.235-1.134,2.686,2.686,0,0,1,1.283.294,2.528,2.528,0,0,1,.923.847l.17-1h1.113V47.35a2.929,2.929,0,0,1-.858,2.267,3.526,3.526,0,0,1-2.475.79,5.176,5.176,0,0,1-1.2-.152,4.661,4.661,0,0,1-1.132-.415l.355-1.086a3.589,3.589,0,0,0,.908.345,4.362,4.362,0,0,0,1.049.131,2.034,2.034,0,0,0,1.486-.465,1.924,1.924,0,0,0,.465-1.415v-.865a2.451,2.451,0,0,1-.9.727,2.844,2.844,0,0,1-1.206.245,2.681,2.681,0,0,1-2.22-1.022,4.181,4.181,0,0,1-.808-2.674Z" fill="#fff"></path><path id="Path_82" data-name="Path 82" d="M323.713,44.463l.249.965H324l1.887-5.8h1.554l-3.228,8.852a3.982,3.982,0,0,1-.833,1.348,1.918,1.918,0,0,1-1.465.574,3,3,0,0,1-.433-.039c-.175-.026-.309-.05-.4-.074l.142-1.1a1.936,1.936,0,0,1,.252.014c.2.014.32.022.372.022a.862.862,0,0,0,.731-.4,4.122,4.122,0,0,0,.475-.879l.333-.8-2.851-7.519h1.56Z" fill="#fff"></path></g></g></svg> 