<?xml version="1.0" encoding="UTF-8"?><svg id="Layer_1" xmlns="http://www.w3.org/2000/svg" viewBox="0 0 329.88 51.43"><path d="M59.39,23.83c-.02,.24-.05,.47-.1,.7-.07,.46-.19,.91-.37,1.34-.36,.84-.89,1.59-1.57,2.21-.58,.57-1.25,1.04-1.97,1.4-1.29,.63-2.68,1.01-4.11,1.1-.34,.03-.69,.04-1.04,.03-.37,.01-.74-.01-1.1-.07-.75-.07-1.5-.24-2.21-.5-1.49-.52-2.81-1.43-3.81-2.64-.52-.66-.94-1.39-1.24-2.17-.3-.82-.44-1.68-.44-2.54h5.19c.04,.5,.24,.97,.57,1.34,.41,.47,.94,.82,1.54,1,.32,.13,.66,.21,1,.23,.17,.03,.33,.04,.5,.03,.21,0,.43,0,.64-.03,.75-.03,1.49-.21,2.17-.54,.27-.12,.51-.28,.74-.47,.13-.13,.25-.27,.33-.44,.04-.06,.06-.13,.07-.2,.03-.1,.04-.2,.03-.3,0-.24-.02-.47-.07-.7-.07-.18-.16-.35-.27-.5-.22-.24-.48-.44-.77-.6-.81-.48-1.69-.84-2.61-1.04-1-.3-2.11-.54-3.31-.97-.64-.21-1.25-.48-1.84-.8-.73-.38-1.39-.89-1.94-1.51-.61-.69-1.03-1.52-1.24-2.41-.11-.42-.18-.84-.2-1.27-.01-.42,.01-.85,.07-1.27,.11-.92,.44-1.81,.97-2.58,.51-.73,1.15-1.34,1.91-1.81,1.28-.77,2.72-1.22,4.21-1.34,.33-.03,.67-.07,1-.07h.53c.18,0,.36,0,.54,.03,.76,.06,1.52,.21,2.24,.47,1.51,.51,2.84,1.44,3.85,2.68,1.06,1.33,1.64,2.98,1.64,4.68h-5.22c-.02-.51-.2-1.01-.53-1.4-.38-.47-.89-.82-1.47-1-.31-.13-.64-.21-.97-.23-.1,0-.17-.03-.27-.03h-.9c-.71,.02-1.4,.19-2.04,.5-.18,.1-.35,.22-.5,.37-.12,.13-.2,.3-.23,.47-.06,.24-.07,.49-.03,.74,.03,.17,.1,.33,.2,.47,.18,.21,.4,.39,.64,.54,.36,.21,.74,.37,1.14,.5,.87,.33,1.91,.6,2.98,.9,1.22,.29,2.42,.67,3.58,1.14,.7,.33,1.35,.74,1.94,1.24,.69,.6,1.24,1.34,1.61,2.17,.36,.79,.55,1.64,.57,2.51v.63Z" style="fill:#394850;"/><rect x="63.8" y="6.8" width="5.18" height="23.41" style="fill:#394850;"/><path d="M89.82,25.7v4.52h-16.09v-13.88h14.28v4.48h-9.1v4.88h10.91ZM73.74,6.8h16.09v4.52h-16.09V6.8Z" style="fill:#394850;"/><path d="M114.64,30.22h-5.89l-6.19-7.79h-3.45v7.79h-5.19v-12.31h11.27c1.64,0,2.98-1.67,2.98-3.28s-1.34-3.31-2.98-3.31h-6.09v2.88h-5.19V6.8h11.27c4.52,0,8.16,3.31,8.16,7.83,0,3.33-2.12,6.28-5.28,7.33l6.56,8.26Z" style="fill:#394850;"/><path d="M138.72,30.22h-5.89l-6.19-7.79h-3.45v7.79h-5.18v-12.31h11.27c1.64,0,2.98-1.67,2.98-3.28s-1.34-3.31-2.98-3.31h-6.09v2.88h-5.18V6.8h11.27c4.52,0,8.16,3.31,8.16,7.83,0,3.33-2.13,6.28-5.28,7.33l6.56,8.26Z" style="fill:#394850;"/><polygon points="148.55 25.7 152.27 25.7 154.78 30.22 140.19 30.22 153.2 6.8 166.22 30.22 159.96 30.22 153 17.71 148.55 25.7" style="fill:#394850;"/><path d="M170.76,16.27h5.18v13.95h-5.18v-13.95Zm-6.86-9.47h18.93v4.52h-18.93V6.8Z" style="fill:#394850;"/><path d="M201.37,6.8h5.22V30.22h-5.22V6.8Zm-.67,9l-4.52,4.52h-5.05v9.9h-5.19V6.8h5.19V15.8h9.57Z" style="fill:#394850;"/><path d="M227.39,25.7v4.52h-16.09v-13.88h14.28v4.48h-9.1v4.88h10.9Zm-16.09-18.9h16.09v4.52h-16.09V6.8Z" style="fill:#394850;"/><path d="M252.2,30.22h-5.89l-6.19-7.79h-3.45v7.79h-5.19v-12.31h11.27c1.64,0,2.98-1.67,2.98-3.28s-1.34-3.31-2.98-3.31h-6.09v2.88h-5.19V6.8h11.27c4.52,0,8.16,3.31,8.16,7.83,0,3.33-2.12,6.28-5.28,7.33l6.56,8.26Z" style="fill:#394850;"/><polygon points="278.93 30.22 273.71 30.22 273.71 21.49 267.29 30.22 260.87 21.49 260.87 30.22 255.68 30.22 255.68 6.8 267.29 22.59 278.93 6.8 278.93 30.22" style="fill:#394850;"/><polygon points="290.37 25.7 294.08 25.7 296.59 30.22 282 30.22 295.01 6.8 308.03 30.22 301.77 30.22 294.81 17.71 290.37 25.7" style="fill:#394850;"/><polygon points="327.66 30.22 311.13 30.22 311.13 6.8 316.32 6.8 316.32 25.7 327.66 25.7 327.66 30.22" style="fill:#394850;"/><polygon points="24.51 23.84 24.51 13.18 35.17 23.84 24.51 23.84" style="fill:#b72025;"/><polygon points="24.51 35.78 24.51 25.13 35.17 25.13 24.51 35.78" style="fill:#394850;"/><polygon points="11.29 11.9 .63 11.9 11.29 1.24 11.29 11.9" style="fill:#ef4538;"/><rect x="12.57" y="1.24" width="10.66" height="10.66" style="fill:#ef4538;"/><polygon points=".63 13.18 11.29 13.18 11.29 23.84 .63 13.18" style="fill:#b72025;"/><rect x="12.57" y="13.18" width="10.66" height="10.66" style="fill:#b72025;"/><rect x="12.57" y="25.13" width="10.66" height="10.66" style="fill:#394850;"/><rect x="24.51" y="1.24" width="10.66" height="10.66" style="fill:#ef4538;"/><rect x=".63" y="25.13" width="10.66" height="10.66" style="fill:#394850;"/><rect x="157.6" y="36.98" width="1.4" height="10.33" style="fill:#b72025;"/><path d="M162.62,39.63l.1,1.14c.24-.39,.57-.71,.96-.95,.4-.23,.85-.35,1.32-.34,.72-.04,1.41,.22,1.92,.73,.45,.48,.68,1.23,.68,2.24v4.85h-1.4v-4.82c.05-.51-.09-1.03-.4-1.44-.33-.31-.77-.46-1.22-.43-.38,0-.75,.09-1.07,.29-.31,.2-.57,.47-.74,.79v5.6h-1.4v-7.68h1.25Z" style="fill:#b72025;"/><path d="M170.88,39.63l.1,1.14c.24-.39,.57-.71,.96-.95,.4-.23,.85-.35,1.32-.34,.72-.04,1.41,.22,1.92,.73,.45,.48,.68,1.23,.68,2.24v4.85h-1.4v-4.82c.05-.51-.09-1.03-.4-1.44-.33-.31-.77-.46-1.22-.43-.38,0-.75,.09-1.07,.29-.31,.2-.57,.47-.74,.79v5.6h-1.4v-7.68h1.25Z" style="fill:#b72025;"/><path d="M178.96,43.55c-.03,.71,.15,1.41,.51,2.01,.35,.5,.92,.79,1.52,.79s1.18-.3,1.52-.79c.37-.61,.55-1.3,.52-2.01v-.16c.03-.71-.15-1.4-.52-2.01-.33-.52-.91-.83-1.53-.8-.61-.03-1.19,.28-1.51,.8-.36,.6-.54,1.3-.51,2.01v.16Zm-1.4-.15c-.04-1.02,.29-2.01,.92-2.81,.65-.7,1.56-1.1,2.51-1.1,.95,0,1.87,.4,2.51,1.1,.64,.79,.97,1.79,.93,2.81v.16c.04,1.02-.28,2.02-.92,2.81-.65,.7-1.56,1.09-2.51,1.09-.95,0-1.86-.4-2.51-1.1-.64-.79-.97-1.79-.93-2.81v-.16Z" style="fill:#b72025;"/><polygon points="188.6 45.05 188.72 45.58 188.76 45.58 188.9 45.05 190.66 39.63 192.09 39.63 189.27 47.31 188.21 47.31 185.35 39.63 186.78 39.63 188.6 45.05" style="fill:#b72025;"/><path d="M195.64,46.28c.48,0,.96-.13,1.37-.39,.36-.2,.64-.51,.79-.89v-1.24h-1.57c-.49-.03-.97,.13-1.35,.42-.31,.24-.5,.6-.51,1-.02,.3,.1,.6,.32,.81,.27,.22,.6,.32,.94,.3Zm2.32,1.03c-.05-.23-.08-.44-.11-.61-.03-.18-.04-.36-.05-.54-.27,.38-.62,.69-1.02,.93-.41,.25-.88,.37-1.35,.37-.67,.05-1.32-.17-1.83-.61-.44-.45-.66-1.07-.63-1.69-.02-.69,.31-1.34,.89-1.72,.72-.45,1.57-.67,2.42-.62h1.52v-.76c.02-.4-.13-.79-.41-1.07-.32-.28-.74-.42-1.16-.39-.39-.02-.78,.1-1.1,.34-.26,.19-.42,.5-.42,.83h-1.33v-.04c-.02-.61,.28-1.18,.78-1.53,.61-.48,1.38-.73,2.15-.69,.76-.04,1.5,.2,2.1,.66,.55,.48,.84,1.19,.79,1.91v3.69c0,.27,.01,.53,.04,.79,.03,.26,.08,.51,.16,.75h-1.44Z" style="fill:#b72025;"/><path d="M203.07,37.78v1.85h1.45v1.04h-1.45v4.66c-.03,.27,.05,.54,.22,.76,.16,.15,.37,.23,.59,.22,.09,0,.18-.01,.27-.03,.09-.02,.17-.04,.26-.07l.18,.96c-.14,.1-.29,.17-.46,.21-.2,.05-.4,.08-.61,.08-.5,.02-.99-.16-1.35-.51-.37-.45-.55-1.03-.5-1.61v-4.66h-1.22v-1.04h1.22v-1.85h1.4Z" style="fill:#b72025;"/><path d="M207.76,47.31h-1.4v-7.68h1.4v7.68Zm0-9.64h-1.4v-1.43h1.4v1.43Z" style="fill:#b72025;"/><path d="M210.98,43.55c-.03,.71,.15,1.41,.51,2.01,.35,.5,.92,.79,1.52,.79s1.18-.3,1.52-.79c.37-.61,.55-1.31,.52-2.01v-.16c.03-.71-.15-1.4-.52-2.01-.33-.52-.91-.83-1.53-.8-.61-.03-1.19,.28-1.51,.8-.36,.6-.54,1.3-.51,2.01v.16Zm-1.4-.15c-.04-1.02,.29-2.01,.92-2.81,.65-.7,1.56-1.1,2.51-1.1,.95,0,1.87,.4,2.51,1.1,.64,.79,.97,1.79,.93,2.81v.16c.04,1.02-.28,2.02-.92,2.81-.65,.7-1.56,1.09-2.51,1.09-.95,0-1.86-.4-2.51-1.1-.64-.79-.97-1.79-.93-2.81v-.16Z" style="fill:#b72025;"/><path d="M219.41,39.63l.1,1.14c.24-.39,.57-.71,.96-.95,.4-.23,.85-.35,1.32-.34,.72-.04,1.41,.22,1.92,.73,.45,.48,.68,1.23,.68,2.24v4.85h-1.4v-4.82c.05-.51-.09-1.03-.4-1.44-.33-.31-.77-.46-1.22-.43-.38,0-.75,.09-1.07,.29-.31,.2-.57,.47-.74,.79v5.6h-1.4v-7.68h1.25Z" style="fill:#b72025;"/><path d="M230.88,45.26c0-.29-.12-.57-.35-.76-.4-.27-.85-.44-1.33-.52-.75-.13-1.47-.41-2.1-.82-.46-.32-.72-.86-.71-1.42,0-.63,.3-1.21,.79-1.59,1.26-.89,2.95-.88,4.2,.03,.5,.41,.78,1.03,.76,1.67v.04h-1.35c0-.35-.16-.68-.42-.9-.3-.28-.71-.42-1.12-.4-.4-.03-.79,.08-1.11,.33-.23,.2-.36,.48-.36,.79-.01,.28,.11,.54,.32,.72,.39,.25,.84,.41,1.3,.47,.77,.13,1.51,.42,2.16,.85,.46,.33,.73,.87,.71,1.44,.01,.65-.3,1.27-.83,1.65-.63,.45-1.39,.67-2.16,.63-.84,.05-1.66-.22-2.31-.75-.53-.42-.83-1.06-.8-1.74v-.04h1.35c0,.43,.2,.84,.55,1.08,.36,.23,.78,.35,1.21,.34,.41,.02,.82-.08,1.17-.3,.27-.17,.43-.47,.42-.79Z" style="fill:#b72025;"/><path d="M239.14,47.31h-1.4v-7.68h1.4v7.68Zm0-9.64h-1.4v-1.43h1.4v1.43Z" style="fill:#b72025;"/><path d="M242.53,39.63l.1,1.14c.24-.39,.57-.71,.96-.95,.4-.23,.85-.35,1.32-.34,.72-.04,1.41,.22,1.92,.73,.45,.48,.68,1.23,.68,2.24v4.85h-1.4v-4.82c.05-.51-.09-1.03-.4-1.44-.33-.31-.77-.46-1.22-.43-.38,0-.75,.09-1.07,.29-.31,.2-.57,.47-.74,.79v5.6h-1.4v-7.68h1.25Z" style="fill:#b72025;"/><polygon points="260.41 38.08 257.09 38.08 257.09 47.31 255.69 47.31 255.69 38.08 252.38 38.08 252.38 36.98 260.41 36.98 260.41 38.08" style="fill:#b72025;"/><path d="M264.01,40.59c-.47,0-.91,.22-1.2,.59-.34,.42-.56,.94-.61,1.48v.04h3.55v-.18c.02-.49-.14-.98-.44-1.37-.32-.38-.81-.59-1.31-.55Zm.21,6.87c-.97,.04-1.9-.35-2.55-1.07-.65-.77-.99-1.76-.95-2.77v-.31c-.03-1,.32-1.98,.98-2.73,.57-.69,1.42-1.09,2.31-1.09,.88-.06,1.75,.28,2.35,.94,.56,.71,.84,1.6,.79,2.5v.87h-4.98l-.02,.03c-.01,.65,.18,1.29,.56,1.81,.36,.47,.92,.74,1.51,.71,.42,0,.85-.06,1.24-.2,.34-.12,.66-.31,.93-.56l.55,.91c-.31,.3-.68,.53-1.09,.68-.52,.19-1.08,.29-1.63,.27h0Z" style="fill:#b72025;"/><path d="M271.84,46.36c.45,0,.88-.15,1.22-.43,.33-.25,.53-.64,.53-1.05h1.26v.04c.02,.7-.31,1.35-.87,1.77-.6,.51-1.36,.78-2.14,.77-.98,.06-1.93-.35-2.56-1.09-.61-.78-.92-1.75-.89-2.75v-.3c-.03-.99,.28-1.96,.89-2.73,1.26-1.34,3.34-1.47,4.76-.3,.55,.49,.86,1.21,.83,1.95v.04h-1.28c0-.45-.17-.88-.5-1.2-.33-.33-.79-.51-1.26-.49-.63-.05-1.24,.25-1.57,.79-.33,.59-.49,1.26-.47,1.94v.3c-.02,.68,.14,1.36,.47,1.96,.34,.54,.94,.84,1.57,.78Z" style="fill:#b72025;"/><path d="M277.82,40.66c.25-.36,.59-.65,.98-.86,.39-.21,.83-.31,1.28-.31,.71-.04,1.41,.23,1.91,.74,.46,.49,.68,1.25,.68,2.27v4.81h-1.4v-4.82c.04-.5-.1-1-.41-1.4-.32-.32-.76-.49-1.22-.45-.37,0-.73,.09-1.05,.27-.31,.18-.58,.44-.78,.74v5.67h-1.4v-11.07h1.4v4.42Z" style="fill:#b72025;"/><path d="M285.93,39.63l.1,1.14c.24-.39,.57-.71,.96-.95,.4-.23,.86-.35,1.32-.34,.72-.04,1.41,.22,1.92,.73,.45,.48,.68,1.23,.68,2.24v4.85h-1.4v-4.82c.05-.51-.09-1.03-.4-1.44-.33-.31-.77-.46-1.22-.43-.38,0-.75,.09-1.07,.29-.31,.2-.57,.47-.74,.79v5.6h-1.4v-7.68h1.25Z" style="fill:#b72025;"/><path d="M294.01,43.55c-.03,.71,.15,1.41,.51,2.01,.35,.5,.92,.79,1.52,.79s1.18-.3,1.52-.79c.37-.61,.55-1.3,.52-2.01v-.16c.03-.71-.15-1.4-.52-2.01-.33-.52-.91-.83-1.53-.8-.61-.03-1.19,.28-1.51,.8-.36,.6-.54,1.3-.51,2.01v.16Zm-1.4-.15c-.04-1.02,.29-2.01,.92-2.81,.65-.7,1.56-1.1,2.51-1.1,.95,0,1.87,.4,2.51,1.1,.64,.79,.97,1.79,.93,2.81v.16c.04,1.02-.28,2.02-.92,2.81-.65,.7-1.56,1.09-2.51,1.09-.95,0-1.86-.4-2.51-1.1-.64-.79-.97-1.79-.93-2.81v-.16Z" style="fill:#b72025;"/><rect x="301.31" y="36.24" width="1.4" height="11.07" style="fill:#b72025;"/><path d="M305.92,43.55c-.03,.71,.15,1.41,.51,2.01,.35,.5,.92,.79,1.52,.79s1.18-.3,1.52-.79c.37-.61,.55-1.3,.52-2.01v-.16c.03-.71-.15-1.4-.52-2.01-.33-.52-.91-.83-1.53-.8-.61-.03-1.19,.28-1.51,.8-.36,.6-.54,1.3-.51,2.01v.16Zm-1.4-.15c-.04-1.02,.29-2.01,.92-2.81,.65-.7,1.56-1.1,2.51-1.1,.95,0,1.87,.4,2.51,1.1,.64,.79,.97,1.79,.93,2.81v.16c.04,1.02-.28,2.02-.92,2.81-.65,.7-1.56,1.09-2.51,1.09-.95,0-1.86-.4-2.51-1.1-.64-.79-.97-1.79-.93-2.81v-.16Z" style="fill:#b72025;"/><path d="M314.2,43.76c-.03,.66,.14,1.3,.49,1.86,.34,.48,.9,.74,1.49,.7,.37,.01,.74-.09,1.06-.29,.3-.21,.54-.49,.7-.81v-3.53c-.17-.31-.41-.58-.7-.78-.31-.2-.67-.3-1.04-.29-.62-.03-1.2,.3-1.5,.84-.36,.66-.53,1.4-.5,2.15v.15Zm-1.4-.15c-.05-1.06,.23-2.1,.81-2.99,.5-.74,1.34-1.17,2.23-1.13,.45-.01,.89,.09,1.28,.29,.37,.2,.69,.49,.92,.85l.17-1h1.11v7.72c.05,.84-.26,1.67-.86,2.27-.57,.53-1.4,.79-2.48,.79-.4,0-.8-.06-1.2-.15-.39-.09-.77-.23-1.13-.41l.35-1.09c.29,.16,.59,.27,.91,.34,.34,.09,.7,.13,1.05,.13,.54,.05,1.07-.12,1.49-.46,.34-.39,.51-.9,.46-1.41v-.87c-.24,.31-.55,.56-.9,.73-.38,.17-.79,.25-1.21,.25-.86,.04-1.69-.34-2.22-1.02-.57-.77-.85-1.72-.81-2.67v-.15Z" style="fill:#b72025;"/><path d="M323.71,44.46l.25,.96h.04l1.89-5.79h1.55l-3.23,8.85c-.18,.5-.47,.96-.83,1.35-.38,.39-.92,.6-1.46,.57-.14,0-.29-.02-.43-.04-.18-.03-.31-.05-.4-.07l.14-1.1c.08,0,.17,0,.25,.01,.2,.01,.32,.02,.37,.02,.3,0,.57-.15,.73-.4,.19-.27,.35-.57,.48-.88l.33-.8-2.85-7.52h1.56l1.62,4.83Z" style="fill:#b72025;"/></svg>